<svg width="640" height="520" viewBox="0 0 640 520" fill="none" xmlns="http://www.w3.org/2000/svg">
  <rect width="640" height="520" rx="42" fill="#FFF9F1"/>
  <rect x="36" y="36" width="568" height="448" rx="34" fill="#201A1A"/>
  <rect x="74" y="83" width="156" height="140" rx="24" fill="#FBF6EE"/>
  <rect x="252" y="83" width="314" height="140" rx="24" fill="#2E2626" stroke="#F7E5D6" stroke-opacity="0.18"/>
  <rect x="74" y="247" width="250" height="196" rx="26" fill="#D73A31"/>
  <rect x="346" y="247" width="220" height="196" rx="26" fill="#FBF6EE"/>
  <path d="M108 119H196C210.359 119 222 130.641 222 145C222 159.359 210.359 171 196 171H108V119Z" fill="#D73A31"/>
  <path d="M124 136H194C199.523 136 204 140.477 204 146C204 151.523 199.523 156 194 156H124V136Z" fill="#FBF6EE" fill-opacity="0.9"/>
  <path d="M106 284C131.333 299.333 156.667 314.667 182 330C210 349.333 221.667 371 217 395C212.333 419 192.667 432.333 158 435" stroke="#FFF3E3" stroke-width="16" stroke-linecap="round"/>
  <path d="M377 309H534" stroke="#D73A31" stroke-width="18" stroke-linecap="round"/>
  <path d="M377 351H502" stroke="#D73A31" stroke-opacity="0.8" stroke-width="18" stroke-linecap="round"/>
  <path d="M377 393H454" stroke="#D73A31" stroke-opacity="0.55" stroke-width="18" stroke-linecap="round"/>
  <circle cx="451" cy="153" r="44" fill="#D73A31" fill-opacity="0.18" stroke="#D73A31" stroke-width="2"/>
  <circle cx="451" cy="153" r="19" fill="#F2C57B"/>
  <path d="M292 153H410" stroke="#F7E5D6" stroke-opacity="0.22" stroke-width="12" stroke-linecap="round"/>
  <path d="M292 184H530" stroke="#F7E5D6" stroke-opacity="0.12" stroke-width="12" stroke-linecap="round"/>
</svg>
