<svg width="1200" height="630" viewBox="0 0 1200 630" fill="none" xmlns="http://www.w3.org/2000/svg">
  <rect width="1200" height="630" rx="40" fill="#161212"/>
  <circle cx="202" cy="102" r="188" fill="#D73A31" fill-opacity="0.18"/>
  <circle cx="1012" cy="558" r="204" fill="#F2C57B" fill-opacity="0.1"/>
  <rect x="64" y="64" width="1072" height="502" rx="34" fill="#1F1A1A" stroke="#FBF6EE" stroke-opacity="0.12"/>
  <g>
    <rect x="110" y="160" width="118" height="118" rx="28" fill="#D73A31"/>
    <path d="M140 180H179C205.51 180 227 201.49 227 228C227 254.51 205.51 276 179 276H140V180Z" fill="#FBF6EE"/>
    <path d="M156 211H180C188.837 211 196 218.163 196 227C196 235.837 188.837 243 180 243H156V211Z" fill="#D73A31"/>
    <path d="M140 180H156V276H140V180Z" fill="#F2C57B"/>
  </g>
  <text x="284" y="220" fill="#FBF6EE" font-family="Arial Narrow, Avenir Next Condensed, Trebuchet MS, sans-serif" font-size="76" font-weight="700">ElitePlayerPRO</text>
  <text x="284" y="296" fill="#F2C57B" font-family="Avenir Next, Segoe UI, Helvetica Neue, sans-serif" font-size="28" font-weight="700">Global Game Development and Live Operations</text>
  <text x="110" y="392" fill="#FBF6EE" font-family="Avenir Next, Segoe UI, Helvetica Neue, sans-serif" font-size="34" font-weight="600">Build, launch, and operate games with precision.</text>
  <text x="110" y="448" fill="#D7C8BA" font-family="Avenir Next, Segoe UI, Helvetica Neue, sans-serif" font-size="24">IAA and IAP monetization, compliance-aware operations, and senior-led delivery.</text>
  <rect x="110" y="492" width="236" height="48" rx="24" fill="#D73A31"/>
  <text x="147" y="524" fill="#FBF6EE" font-family="Avenir Next, Segoe UI, Helvetica Neue, sans-serif" font-size="24" font-weight="700">eliteplayerpro.com</text>
</svg>
