<svg width="640" height="520" viewBox="0 0 640 520" fill="none" xmlns="http://www.w3.org/2000/svg">
  <rect width="640" height="520" rx="42" fill="#FFF8EF"/>
  <circle cx="320" cy="260" r="174" fill="#201A1A"/>
  <ellipse cx="320" cy="260" rx="142" ry="174" stroke="#F2C57B" stroke-width="2" stroke-dasharray="10 10"/>
  <ellipse cx="320" cy="260" rx="92" ry="174" stroke="#F2C57B" stroke-width="2" stroke-dasharray="10 10"/>
  <path d="M146 260H494" stroke="#F2C57B" stroke-width="2" stroke-dasharray="10 10"/>
  <path d="M172 192H468" stroke="#F2C57B" stroke-width="2" stroke-dasharray="10 10"/>
  <path d="M172 328H468" stroke="#F2C57B" stroke-width="2" stroke-dasharray="10 10"/>
  <path d="M230 122C273.333 165.333 303.333 212.667 320 264C336.667 315.333 366.667 362.667 410 406" stroke="#FBF6EE" stroke-opacity="0.22" stroke-width="8" stroke-linecap="round"/>
  <circle cx="225" cy="178" r="24" fill="#D73A31"/>
  <circle cx="410" cy="170" r="18" fill="#FBF6EE"/>
  <circle cx="463" cy="274" r="24" fill="#D73A31"/>
  <circle cx="359" cy="360" r="20" fill="#F2C57B"/>
  <circle cx="226" cy="316" r="18" fill="#FBF6EE"/>
  <circle cx="311" cy="259" r="16" fill="#D73A31"/>
  <path d="M225 178L311 259L410 170" stroke="#FBF6EE" stroke-width="6" stroke-linecap="round"/>
  <path d="M311 259L463 274L359 360L226 316L225 178" stroke="#D73A31" stroke-opacity="0.65" stroke-width="6" stroke-linecap="round"/>
</svg>
